<?xml version="1.0" encoding="UTF-8"?>

<svg xmlns="http://www.w3.org/2000/svg" viewBox="0 0 200 200" fill="none">
  <defs>
    <linearGradient id="goldA" x1="0" y1="0" x2="1" y2="1">
      <stop offset="0%" stop-color="#8E6A09"></stop>
      <stop offset="35%" stop-color="#B8860B"></stop>
      <stop offset="55%" stop-color="#E2C673"></stop>
      <stop offset="80%" stop-color="#B8860B"></stop>
      <stop offset="100%" stop-color="#7A5907"></stop>
    </linearGradient>
    <linearGradient id="goldB" x1="0" y1="1" x2="1" y2="0">
      <stop offset="0%" stop-color="#7A5907"></stop>
      <stop offset="50%" stop-color="#D2A93A"></stop>
      <stop offset="100%" stop-color="#8E6A09"></stop>
    </linearGradient>
  </defs>

  
  <polygon points="100,18 175,60 175,140 100,182 25,140 25,60" fill="url(#goldA)" stroke="#5A4205" stroke-width="1.5" stroke-linejoin="miter"></polygon>

  
  <polygon points="100,18 100,100 25,60" fill="#1C1C1C" opacity=".55"></polygon>
  <polygon points="100,18 175,60 100,100" fill="#1C1C1C" opacity=".25"></polygon>
  <polygon points="25,60  100,100 25,140" fill="#1C1C1C" opacity=".75"></polygon>
  <polygon points="175,60 175,140 100,100" fill="#1C1C1C" opacity=".40"></polygon>
  <polygon points="100,100 175,140 100,182" fill="#1C1C1C" opacity=".60"></polygon>
  <polygon points="100,100 100,182 25,140" fill="#1C1C1C" opacity=".80"></polygon>

  
  <g stroke="#5A4205" stroke-width="1.2" stroke-linejoin="miter">
    
    <rect x="86" y="38" width="32" height="62" fill="url(#goldB)"></rect>
    
    <g fill="#1C1C1C" opacity=".55">
      <rect x="92" y="44" width="6" height="6"></rect>
      <rect x="106" y="44" width="6" height="6"></rect>
      <rect x="92" y="56" width="6" height="6"></rect>
      <rect x="106" y="56" width="6" height="6"></rect>
      <rect x="92" y="68" width="6" height="6"></rect>
      <rect x="106" y="68" width="6" height="6"></rect>
      <rect x="92" y="80" width="6" height="6"></rect>
      <rect x="106" y="80" width="6" height="6"></rect>
      <rect x="92" y="92" width="6" height="6"></rect>
      <rect x="106" y="92" width="6" height="6"></rect>
    </g>
    
    <polygon points="86,38 102,30 118,38" fill="#D2A93A"></polygon>

    
    <polygon points="60,72 86,60 86,100 60,100" fill="url(#goldA)"></polygon>
    <polygon points="118,60 140,72 140,100 118,100" fill="url(#goldA)"></polygon>

    
    <g fill="#1C1C1C" opacity=".45">
      <rect x="66" y="78" width="5" height="5"></rect>
      <rect x="76" y="78" width="5" height="5"></rect>
      <rect x="66" y="88" width="5" height="5"></rect>
      <rect x="76" y="88" width="5" height="5"></rect>
      <rect x="124" y="78" width="5" height="5"></rect>
      <rect x="134" y="78" width="5" height="5"></rect>
      <rect x="124" y="88" width="5" height="5"></rect>
      <rect x="134" y="88" width="5" height="5"></rect>
    </g>
  </g>

  
  <polyline points="25,60 100,100 175,60" fill="none" stroke="#F1E3B0" stroke-width="0.8" opacity=".7"></polyline>
  <polyline points="100,100 100,182" fill="none" stroke="#3A2A03" stroke-width="0.8" opacity=".6"></polyline>
</svg>